<?xml version="1.0" encoding="utf-8"?>
<!-- Generator: Adobe Illustrator 24.1.0, SVG Export Plug-In . SVG Version: 6.00 Build 0)  -->
<svg version="1.1" id="Layer_1" xmlns="http://www.w3.org/2000/svg" xmlns:xlink="http://www.w3.org/1999/xlink" x="0px" y="0px"
	 viewBox="0 0 65.5 50.1" style="enable-background:new 0 0 65.5 50.1;" xml:space="preserve">
<style type="text/css">
	.st0{stroke:#514C47;stroke-width:0.249;}
</style>
<g id="Layer_1_1_" transform="translate(0 0.037)">
	<g id="Group_6" transform="translate(0.136 0.125)">
		<path id="Path_46" class="st0" d="M51.6,17.9L52,4.3l-8.7,3.5l-0.3-5.6c-3.6-2.8-9.1-2.6-13.4-1.7l-0.2,4.7h0l-9.5-0.7
			c-0.1,1.9-0.1,3.9-0.2,5.8L19,10.4l-0.5-9.6L8.3,1.3L8,10.6l-4.6,0.8l0,5.8L0,17l1.4,16.4l0.7-0.1L0.8,17.8L4,18l0-6L8,11.4
			l-0.2,8.1l3.1,0.9v0L11,10.1l-2.3,0.4L9,1.9l8.9-0.4l0.5,9.5l1.8,0.2l0.2-5.9c0,0,0,0,0,0L29.2,6l-0.6,12.4c1.1,0,2.2,0,3.3,0
			l-0.6-13c-0.5,0-1-0.1-1.4-0.1l0.2-4.1c4-0.8,8.8-0.9,12.1,1.5l0.3,5.5l-1.7,0.7v0l-0.2,7.2l3.1,0.5l-0.4-8l7.9-3.2v0l-0.4,13.5
			l3.6-1.2l-0.7,15.7l0.7,0l0.7-14.8l0-2L51.6,17.9z M10.3,11l-0.1,8.4l-1.7-0.5l0.2-7.6v0C9.2,11.2,9.8,11.1,10.3,11z M30.8,6.1
			l0.5,11.6l-1.9,0L30,6C30.2,6,30.5,6.1,30.8,6.1z M43,15.8l-1.7-0.3l0.2-6.1l1-0.4L43,15.8L43,15.8L43,15.8z"/>
	</g>
	<g id="Group_7" transform="translate(22.138 41.165)">
		<path id="Path_47" d="M3.9,8.9c-1.1,0-2.1-0.5-2.8-1.3C0.3,6.7,0,5.6,0,4.5C0,3,0.6,1.6,1.8,0.7C2.4,0.2,3.2,0,4,0
			c0.8,0,1.6,0.2,2.3,0.7L5.7,2.5C5.2,2.2,4.7,2,4.1,2C3,2,2.2,3,2.2,4.5S3,7,4.2,7c0.7,0,1.3-0.3,1.9-0.7L6.5,8
			C5.7,8.6,4.8,8.9,3.9,8.9z"/>
		<path id="Path_48" d="M15.9,6.3c0,1.6-1.2,2.6-3,2.6c-1.1,0.1-2.2-0.5-2.6-1.5l1.3-1.2c0.3,0.5,0.8,0.9,1.4,1
			c0.6,0,0.9-0.3,0.9-0.8c0-0.5-0.4-0.6-0.9-0.8l-0.6-0.2c-1.2-0.4-2-1.5-2-2.7C10.4,1.1,11.6,0,13,0c0.1,0,0.2,0,0.2,0
			c0.9,0,1.7,0.3,2.4,0.7L15,2.6c-0.5-0.4-1.1-0.6-1.7-0.7c-0.6,0-1,0.2-1,0.6c0,0.4,0.3,0.5,0.8,0.7l0.6,0.2
			C15,3.8,15.9,5,15.9,6.3z"/>
		<path id="Path_49" d="M21.8,7l-0.6,1.7h-2.2l3.1-8.6H24l3.1,8.6H25L24.4,7H21.8z M23.9,5.6l-0.2-0.7c-0.1-0.2-0.3-0.9-0.6-2.1
			c-0.3,1.2-0.5,1.9-0.6,2.1l-0.2,0.7L23.9,5.6z"/>
		<path id="Path_50" d="M31.2,8.7V0.2h2.1v8.6L31.2,8.7z"/>
		<path id="Path_51" d="M38.4,8.7V0.2h2.1V7h2.8v1.7L38.4,8.7z"/>
	</g>
	<path id="Path_52" d="M54.6,33l-5.9,0.8l1.1-11.9h0l-9.6,0.4l0.4,6.1c-1.1-0.1-2.2-0.1-3.3,0v0l-0.2-9.1l-4.9,0.2l-0.7,2.7l-5,0.2
		L24,31.5l-2.2,0l0.3-15v-1.6l-7.7,1.6l0.4,8.7c-2.4-0.3-4.8,0.1-7.1,1l-0.4,6.7l-5.8,0l0.1,0.7l5.7,0.1l-0.3,5.5h0l14.7-0.5v0
		l0.1-6.4h2.8l2.6-9.1l5-0.2l0.7-2.7l3.6-0.2l0.2,8.5c-3,0.3-5.9,1.3-8.5,2.8c-1.4,0.9-3.4,2.2-3.4,4.1h12.8l-0.1-6.2
		c1.1-0.1,2.2-0.1,3.3,0l0.3,3.7l5.4-0.5c-0.2-0.9-0.3-1.8-0.3-2.7c-1.5-0.6-3.1-0.9-4.7-1.1L40.9,23l8.1-0.3l-1.1,12l6.7-1L54.6,33
		z M8.4,26.7L8.4,26.7c2.1-0.8,4.3-1.1,6.4-0.8l0.3,6.2l2,0l0,0.9L8,32.9L8.4,26.7z M15.5,26c0.4,0.1,0.8,0.2,1.2,0.3l0.3,5
		c-0.4,0-0.8,0-1.2,0L15.5,26z M20.9,37.9L7.7,38.3h0c0.1-1.6,0.2-3.2,0.3-4.8l9.9,0.2l-0.1-1.6l3.3,0L20.9,37.9z M21,31.5l-3.3,0
		l-0.3-5.5c-0.6-0.3-1.2-0.5-1.9-0.6l-0.1-0.5L15.1,17l6.2-1.3l0,1.4L21,31.5z M25.5,34.6c1-1.5,2.3-2.6,4-3.3
		c2.3-1.1,4.7-1.8,7.2-2.1l0.1,5.4L25.5,34.6z M45.3,30.1l0.2,1.6L41.6,32l-0.2-2.8C42.7,29.4,44,29.7,45.3,30.1z"/>
</g>
</svg>
