<?xml version="1.0" encoding="UTF-8"?>
<svg xmlns="http://www.w3.org/2000/svg" version="1.1" viewBox="0 0 206.7 141.8">
  <defs>
    <style>
      .cls-1 {
        fill: #fff;
      }
    </style>
  </defs>
  <!-- Generator: Adobe Illustrator 28.6.0, SVG Export Plug-In . SVG Version: 1.2.0 Build 709)  -->
  <g>
    <g id="Layer_1">
      <polygon class="cls-1" points="72.9 28.9 72.9 34 78 34 78 47.1 84.3 47.1 84.3 34 89.3 34 89.3 28.9 72.9 28.9"/>
      <rect class="cls-1" x="62.5" y="28.9" width="6.3" height="18.3"/>
      <polygon class="cls-1" points="47.8 28.9 45.1 39 44.5 42.2 44.2 42.2 43.7 39.1 40.7 28.9 31.9 28.9 31.9 47.1 37.4 47.1 37.4 37.6 37.2 34.3 37.5 34.3 41.1 47.1 47.4 47.1 50.9 34.2 51.3 34.2 51.1 37.9 51.1 47.1 56.6 47.1 56.6 28.9 47.8 28.9"/>
      <path class="cls-1" d="M140.6,70.6h-3.9v14.7h3.9v7.1h-18.9v-7.1h3.9v-14.7h-3.9s0-7.1,0-7.1h18.9v7.1ZM107.9,92.4l-1.3-4.3h-8.1l-1.3,4.3h-11.4l10.7-28.8h12.4l10.5,28.8h-11.6ZM70.8,93.1c-4,0-8.7-.7-10.4-1.2v-8.2c2.2.8,5.5,1.4,8.7,1.4s3.9-.4,3.9-1.7-.9-1.4-3.9-1.9c-4.2-.7-8.9-1.8-8.9-8.5s4.2-10.2,13.4-10.2,8.4.8,9.9,1.3v7.5c-3.1-.7-5.8-1.1-8.5-1.1s-3.1.1-3.1,1.4,1,1.4,4.7,2.2c4.6.9,8.1,2.4,8.1,8.2s-3.1,10.8-13.9,10.8M145.9,63.6h11.1v20.2h11.4l9.5-42.1-33.5-10.5v16.5c-4.2-1.9-12.9-4-22-4s-18.2,1.6-21.8,4.4l-3.1,8.3-68.7-4.5,2.9,20.5c1.8-5.6,6.8-9.4,16.2-9.4s6.3.5,7.9,1v8.4c-1-.3-3.8-.7-6.2-.7-4.2,0-7.3,1.5-7.3,6.4s3.9,6.7,7.8,6.7,3.3-.1,5.7-.7v8.2c-2.8.8-4.9,1.1-8.2,1.1-6.8,0-11.1-2-13.7-5.1l3.1,21.7,44.1-9.1-1.4,3.9c3.3,3.2,14.6,5.7,27.2,5.7s28.3-2.3,37.6-5.3v8.9l18.3-4.7,3.8-16.9h-20.5v-28.8Z"/>
      <polygon class="cls-1" points="102.7 70.9 102.4 70.9 101.8 73.9 99.8 81.3 105.4 81.3 103.4 73.9 102.7 70.9"/>
    </g>
  </g>
</svg>