<svg xmlns="http://www.w3.org/2000/svg" width="64.445" height="56" viewBox="0 0 64.445 56">
  <g id="Group_102" data-name="Group 102" transform="translate(0 -6.5)">
    <g id="Group_81" data-name="Group 81" transform="translate(5.116 6.5)">
      <g id="Group_80" data-name="Group 80">
        <g id="Group_78" data-name="Group 78" transform="translate(4.065 3.926)">
          <path id="Path_129" data-name="Path 129" d="M14.93,18.329a.635.635,0,0,1-.644-.579,4.541,4.541,0,0,1,1.094-3.476A4.794,4.794,0,0,1,18.6,12.6a.754.754,0,0,1,.708.579.7.7,0,0,1-.579.708,3.316,3.316,0,0,0-2.317,1.223,3.548,3.548,0,0,0-.772,2.51.756.756,0,0,1-.708.708Z" transform="translate(-14.262 -12.6)" fill="#0067e0"/>
        </g>
        <g id="Group_79" data-name="Group 79">
          <path id="Path_130" data-name="Path 130" d="M8.625,15.511a.635.635,0,0,1-.644-.579,7.623,7.623,0,0,1,1.8-5.664A7.776,7.776,0,0,1,15.062,6.5a.754.754,0,0,1,.708.579.7.7,0,0,1-.579.708A6.175,6.175,0,0,0,10.814,10.1a6.423,6.423,0,0,0-1.48,4.763.756.756,0,0,1-.708.644Z" transform="translate(-7.948 -6.5)" fill="#0067e0"/>
        </g>
      </g>
    </g>
    <g id="Group_82" data-name="Group 82" transform="translate(0 53.939)">
      <path id="Path_131" data-name="Path 131" d="M40.487,88.761H.644A.608.608,0,0,1,0,88.117V85.349A5.165,5.165,0,0,1,5.149,80.2h30.9A5.165,5.165,0,0,1,41.2,85.349v2.768A.819.819,0,0,1,40.487,88.761Zm-39.2-1.287H39.844V85.349a3.8,3.8,0,0,0-3.8-3.8H5.149a3.8,3.8,0,0,0-3.8,3.8v2.124Z" transform="translate(0 -80.2)" fill="#0067e0"/>
    </g>
    <g id="Group_85" data-name="Group 85" transform="translate(9.128 44.413)">
      <g id="Group_83" data-name="Group 83" transform="translate(0 0.064)">
        <path id="Path_132" data-name="Path 132" d="M14.837,76.314h-.193a.7.7,0,0,1-.451-.772l2.768-9.591A.639.639,0,0,1,17.6,65.5H21.66a.644.644,0,1,1,0,1.287h-3.6l-2.639,9.14A.652.652,0,0,1,14.837,76.314Z" transform="translate(-14.181 -65.5)" fill="#0067e0"/>
      </g>
      <g id="Group_84" data-name="Group 84" transform="translate(14.753)">
        <path id="Path_133" data-name="Path 133" d="M44.567,76.278a.775.775,0,0,1-.644-.451l-2.575-9.14h-3.6a.644.644,0,0,1,0-1.287h4.12a.7.7,0,0,1,.644.451l2.7,9.591a.662.662,0,0,1-.451.772C44.7,76.214,44.631,76.278,44.567,76.278Z" transform="translate(-37.1 -65.4)" fill="#0067e0"/>
      </g>
    </g>
    <g id="Group_86" data-name="Group 86" transform="translate(15.77 40.164)">
      <path id="Path_134" data-name="Path 134" d="M29.134,68.069a4.634,4.634,0,1,1,4.634-4.634A4.615,4.615,0,0,1,29.134,68.069Zm0-7.982a3.347,3.347,0,1,0,3.347,3.347A3.365,3.365,0,0,0,29.134,60.087Z" transform="translate(-24.5 -58.8)" fill="#0067e0"/>
    </g>
    <g id="Group_87" data-name="Group 87" transform="translate(19.439 19.18)">
      <circle id="Ellipse_6" data-name="Ellipse 6" cx="0.966" cy="0.966" r="0.966" transform="translate(0 24.653)" fill="#0067e0"/>
      <circle id="Ellipse_7" data-name="Ellipse 7" cx="0.966" cy="0.966" r="0.966" fill="#0067e0"/>
    </g>
    <g id="Group_88" data-name="Group 88" transform="translate(12.616 12.357)">
      <path id="Path_135" data-name="Path 135" d="M34.533,24.032a.608.608,0,0,1-.644-.644,6.5,6.5,0,0,0-13,0,.644.644,0,1,1-1.287,0,7.789,7.789,0,0,1,15.577,0A.645.645,0,0,1,34.533,24.032Z" transform="translate(-19.6 -15.6)" fill="#0067e0"/>
    </g>
    <g id="Group_89" data-name="Group 89" transform="translate(15.77 15.511)">
      <path id="Path_136" data-name="Path 136" d="M29.134,29.769a4.634,4.634,0,1,1,4.634-4.634A4.615,4.615,0,0,1,29.134,29.769Zm0-7.982a3.347,3.347,0,1,0,3.347,3.347A3.324,3.324,0,0,0,29.134,21.787Z" transform="translate(-24.5 -20.5)" fill="#0067e0"/>
    </g>
    <g id="Group_92" data-name="Group 92" transform="translate(16.671 22.013)">
      <g id="Group_90" data-name="Group 90" transform="translate(6.179 3.669)">
        <path id="Path_137" data-name="Path 137" d="M36.144,53.422a.608.608,0,0,1-.644-.644V36.944a.644.644,0,0,1,1.287,0V52.778A.608.608,0,0,1,36.144,53.422Z" transform="translate(-35.5 -36.3)" fill="#0067e0"/>
      </g>
      <g id="Group_91" data-name="Group 91">
        <path id="Path_138" data-name="Path 138" d="M26.544,51.391a.608.608,0,0,1-.644-.644v-19.5a.644.644,0,1,1,1.287,0v19.5A.645.645,0,0,1,26.544,51.391Z" transform="translate(-25.9 -30.6)" fill="#0067e0"/>
      </g>
    </g>
    <g id="Group_93" data-name="Group 93" transform="translate(26.391 25.102)">
      <path id="Path_139" data-name="Path 139" d="M52.264,47.372a.584.584,0,0,1-.451-.193L41.193,36.494a.637.637,0,0,1,.9-.9L52.715,46.214a.622.622,0,0,1,0,.9A.486.486,0,0,1,52.264,47.372Z" transform="translate(-41 -35.4)" fill="#0067e0"/>
    </g>
    <g id="Group_94" data-name="Group 94" transform="translate(22.851 30.445)">
      <path id="Path_140" data-name="Path 140" d="M47.794,56.574a.584.584,0,0,1-.451-.193L35.693,44.794a.637.637,0,0,1,.9-.9L48.245,55.479a.622.622,0,0,1,0,.9A.584.584,0,0,1,47.794,56.574Z" transform="translate(-35.5 -43.7)" fill="#0067e0"/>
    </g>
    <g id="Group_95" data-name="Group 95" transform="translate(34.501 33.985)">
      <path id="Path_141" data-name="Path 141" d="M57.14,59.692a4.722,4.722,0,0,1-3.347-1.352.637.637,0,1,1,.9-.9,3.458,3.458,0,0,0,4.892,0l8.046-8.046a.637.637,0,0,1,.9.9L60.487,58.34A4.722,4.722,0,0,1,57.14,59.692Z" transform="translate(-53.6 -49.2)" fill="#0067e0"/>
    </g>
    <g id="Group_96" data-name="Group 96" transform="translate(37.011 29.222)">
      <path id="Path_142" data-name="Path 142" d="M58.144,49.653a.584.584,0,0,1-.451-.193.622.622,0,0,1,0-.9l6.566-6.566a.637.637,0,1,1,.9.9L58.594,49.46A.584.584,0,0,1,58.144,49.653Z" transform="translate(-57.5 -41.8)" fill="#0067e0"/>
    </g>
    <g id="Group_101" data-name="Group 101" transform="translate(46.345 14.319)">
      <g id="Group_99" data-name="Group 99">
        <g id="Group_97" data-name="Group 97">
          <path id="Path_143" data-name="Path 143" d="M72.644,31.426h-.064A.754.754,0,0,1,72,30.718l.515-3.6c.515-3.669,2.446-6.179,5.536-7.016l5.085-1.416a.611.611,0,0,1,.772.451.662.662,0,0,1-.451.772L78.372,21.32c-3.411.966-4.313,4.12-4.57,5.986l-.515,3.54A.684.684,0,0,1,72.644,31.426Z" transform="translate(-72 -18.647)" fill="#0067e0"/>
        </g>
        <g id="Group_98" data-name="Group 98" transform="translate(5.204 5.943)">
          <path id="Path_144" data-name="Path 144" d="M80.738,39.93a.684.684,0,0,1-.644-.579.608.608,0,0,1,.579-.708l3.6-.515c1.8-.257,5.021-1.159,5.986-4.57l1.48-5.214a.632.632,0,0,1,1.223.322l-1.48,5.214c-.837,3.025-3.347,5.021-7.016,5.536l-3.6.515Z" transform="translate(-80.085 -27.881)" fill="#0067e0"/>
        </g>
      </g>
      <g id="Group_100" data-name="Group 100" transform="translate(1.094 6.986)">
        <path id="Path_145" data-name="Path 145" d="M74.344,39.348a.584.584,0,0,1-.451-.193.622.622,0,0,1,0-.9l8.561-8.561a.637.637,0,1,1,.9.9l-8.561,8.561A.584.584,0,0,1,74.344,39.348Z" transform="translate(-73.7 -29.5)" fill="#0067e0"/>
      </g>
    </g>
  </g>
</svg>
