<?xml version="1.0" encoding="utf-8"?>
<!-- Generator: Adobe Illustrator 24.1.0, SVG Export Plug-In . SVG Version: 6.00 Build 0)  -->
<svg version="1.1" id="Layer_1" xmlns="http://www.w3.org/2000/svg" xmlns:xlink="http://www.w3.org/1999/xlink" x="0px" y="0px"
	 viewBox="0 0 88.5 100" style="enable-background:new 0 0 88.5 100;" xml:space="preserve">
<g>
	<g>
		<path d="M73.6,73.3H15c-0.6,0-1.1-0.5-1.1-1.1V14.8c0-0.6,0.5-1.1,1.1-1.1h58.5c0.6,0,1.1,0.5,1.1,1.1v57.4
			C74.7,72.8,74.2,73.3,73.6,73.3z M16.2,71h56.3V15.9H16.2V71z"/>
	</g>
	<g>
		<path d="M87.5,100h-24c-0.5,0-0.9-0.3-1.1-0.8L61,95.1c-1.7-4.9-6.4-8.2-11.6-8.2H39.2c-5.2,0-9.9,3.3-11.6,8.2l-1.4,4.1
			c-0.2,0.5-0.6,0.8-1.1,0.8h-24C0.5,100,0,99.5,0,98.9V7.7C0,3.5,3.5,0,7.7,0h73.1c4.3,0,7.7,3.5,7.7,7.7v91.1
			C88.6,99.5,88.1,100,87.5,100z M64.3,97.7h22v-90c0-3-2.5-5.5-5.5-5.5H7.7c-3,0-5.5,2.5-5.5,5.5v90h22.1l1.2-3.3
			c2-5.8,7.5-9.7,13.7-9.7h10.2c6.2,0,11.7,3.9,13.7,9.7L64.3,97.7z"/>
	</g>
	<g>
		<g>
			<path d="M58.4,26H30.2c-2.4,0-4.3-1.9-4.3-4.3v-6.9c0-0.6,0.5-1.1,1.1-1.1s1.1,0.5,1.1,1.1v6.9c0,1.1,0.9,2.1,2.1,2.1h28.1
				c1.1,0,2.1-0.9,2.1-2.1v-6.9c0-0.6,0.5-1.1,1.1-1.1s1.1,0.5,1.1,1.1v6.9C62.7,24.1,60.8,26,58.4,26z"/>
		</g>
		<g>
			<path d="M44.3,42.3l-7-5.7V24.9c0-0.6,0.5-1.1,1.1-1.1s1.1,0.5,1.1,1.1v10.6l4.8,3.9l4.8-3.9V24.9c0-0.6,0.5-1.1,1.1-1.1
				s1.1,0.5,1.1,1.1v11.6L44.3,42.3z"/>
		</g>
	</g>
	<g>
		<path d="M27,66.4c-0.6,0-1.1-0.5-1.1-1.1c0-4.2,3.5-7.7,7.7-7.7h22.1c2.6,0,4.7-2.1,4.7-4.7s-2.1-4.7-4.7-4.7h-8.3
			c-2.3,0-4.3-1.9-4.3-4.3v-3c0-0.6,0.5-1.1,1.1-1.1s1.1,0.5,1.1,1.1v3c0,1.1,0.9,2,2,2h8.3c3.9,0,7,3.1,7,7s-3.1,7-7,7h-22
			c-3,0-5.5,2.4-5.5,5.5C28.1,65.9,27.6,66.4,27,66.4z"/>
	</g>
</g>
</svg>
