<?xml version="1.0" encoding="utf-8"?>
<!-- Generator: Adobe Illustrator 24.1.0, SVG Export Plug-In . SVG Version: 6.00 Build 0)  -->
<svg version="1.1" id="Layer_1" xmlns="http://www.w3.org/2000/svg" xmlns:xlink="http://www.w3.org/1999/xlink" x="0px" y="0px"
	 viewBox="0 0 90.1 100" style="enable-background:new 0 0 90.1 100;" xml:space="preserve">
<g>
	<g>
		<g>
			<path d="M50,40.8c-0.2,0-0.4-0.1-0.6-0.2l-25-14.4c-0.3-0.2-0.6-0.6-0.6-1s0.2-0.8,0.6-1l25-14.4c0.3-0.2,0.8-0.2,1.1,0l25,14.4
				c0.3,0.2,0.6,0.6,0.6,1s-0.2,0.8-0.6,1l-25,14.4C50.4,40.7,50.2,40.8,50,40.8z M27.3,25.2L50,38.3l22.7-13.1L50,12.1L27.3,25.2z"
				/>
		</g>
		<g>
			<path d="M50,69.8L23.9,54.7V25.2c0-0.6,0.5-1.1,1.1-1.1s1.1,0.5,1.1,1.1v28.2l23.8,13.8l23.8-13.8V25.2c0-0.6,0.5-1.1,1.1-1.1
				s1.1,0.5,1.1,1.1v29.5L50,69.8z"/>
		</g>
		<g>
			<path d="M50,59.9c-0.6,0-1.1-0.5-1.1-1.1V39.6c0-0.6,0.5-1.1,1.1-1.1s1.1,0.5,1.1,1.1v19.2C51.2,59.4,50.7,59.9,50,59.9z"/>
		</g>
		<g>
			<path d="M79.6,68.1c-0.2,0-0.4,0-0.6-0.2l-6.1-3.5c-0.5-0.3-0.7-1-0.4-1.5c0.3-0.5,1-0.7,1.5-0.4l6.1,3.5c0.5,0.3,0.7,1,0.4,1.5
				C80.4,67.9,80,68.1,79.6,68.1z"/>
		</g>
		<g>
			<path d="M63,77.9l-6.7-3.8c-0.5-0.3-0.7-1-0.4-1.5s1-0.7,1.5-0.4l5.5,3.2l22.7-13.1l-4.4-2.5c-0.5-0.3-0.7-1-0.4-1.5
				c0.3-0.5,1-0.7,1.5-0.4l7.8,4.5L63,77.9z"/>
		</g>
		<path d="M68.6,93.6c-0.2,0-0.4,0-0.6-0.2L13.3,61.8c-0.5-0.3-0.7-1-0.4-1.5c0.3-0.5,1-0.7,1.5-0.4l54.7,31.5
			c0.5,0.3,0.7,1,0.4,1.5C69.3,93.4,69,93.6,68.6,93.6z"/>
		<path d="M13.9,62c-0.6,0-1.1-0.5-1.1-1.1v-52c0-0.6,0.5-1.1,1.1-1.1S15,8.3,15,8.9v52C15,61.5,14.5,62,13.9,62z"/>
		<path d="M19.1,8c-0.3,0-0.6-0.1-0.8-0.3l-4.5-4.5L9.3,7.7c-0.4,0.4-1.2,0.4-1.6,0c-0.4-0.4-0.4-1.2,0-1.6L13.9,0L20,6.1
			c0.4,0.4,0.4,1.2,0,1.6C19.7,7.9,19.4,8,19.1,8z"/>
		<path d="M68.9,98.6c-0.6,0-1.1-0.4-1.1-1c-0.1-0.6,0.4-1.2,1-1.2l6.1-0.7l-1-3.3c-0.2-0.6,0.2-1.2,0.7-1.4
			c0.6-0.2,1.2,0.2,1.4,0.7l1.8,5.9L68.9,98.6C69,98.6,68.9,98.6,68.9,98.6z"/>
		<path d="M1.1,70c-0.4,0-0.8-0.2-1-0.6c-0.3-0.5-0.1-1.2,0.4-1.5l4.9-2.8c0.5-0.3,1.2-0.1,1.5,0.4S7,66.7,6.5,67l-4.9,2.8
			C1.5,70,1.3,70,1.1,70z"/>
		<path d="M7.9,73.8c-0.4,0-0.8-0.2-1-0.6c-0.3-0.5-0.1-1.2,0.4-1.5l4.9-2.8c0.5-0.3,1.2-0.1,1.5,0.4s0.1,1.2-0.4,1.5l-4.9,2.8
			C8.3,73.7,8.1,73.8,7.9,73.8z"/>
		<path d="M14.7,77.5c-0.4,0-0.8-0.2-1-0.6c-0.3-0.5-0.1-1.2,0.4-1.5l4.9-2.8c0.5-0.3,1.2-0.1,1.5,0.4s0.1,1.2-0.4,1.5l-4.9,2.8
			C15.1,77.5,14.9,77.5,14.7,77.5z"/>
		<path d="M21.5,81.3c-0.4,0-0.8-0.2-1-0.6c-0.3-0.5-0.1-1.2,0.4-1.5l4.9-2.8c0.5-0.3,1.2-0.1,1.5,0.4c0.3,0.5,0.1,1.2-0.4,1.5
			l-4.8,2.8C21.9,81.2,21.7,81.3,21.5,81.3z"/>
		<path d="M28.3,85c-0.4,0-0.8-0.2-1-0.6c-0.3-0.5-0.1-1.2,0.4-1.5l4.9-2.8c0.5-0.3,1.2-0.1,1.5,0.4s0.1,1.2-0.4,1.5l-4.9,2.8
			C28.7,85,28.5,85,28.3,85z"/>
		<path d="M35.1,88.8c-0.4,0-0.8-0.2-1-0.6c-0.3-0.5-0.1-1.2,0.4-1.5l4.9-2.8c0.5-0.3,1.2-0.1,1.5,0.4s0.1,1.2-0.4,1.5l-4.9,2.8
			C35.5,88.7,35.3,88.8,35.1,88.8z"/>
		<path d="M41.9,92.5c-0.4,0-0.8-0.2-1-0.6c-0.3-0.5-0.1-1.2,0.4-1.5l4.9-2.8c0.5-0.3,1.2-0.1,1.5,0.4s0.1,1.2-0.4,1.5l-4.9,2.8
			C42.3,92.5,42.1,92.5,41.9,92.5z"/>
		<path d="M48.5,96.3c-0.4,0-0.8-0.2-1-0.6c-0.3-0.5-0.1-1.2,0.4-1.5l4.9-2.8c0.5-0.3,1.2-0.1,1.5,0.4s0.1,1.2-0.4,1.5L49,96.1
			C48.9,96.2,48.7,96.3,48.5,96.3z"/>
	</g>
	<path d="M55,100c-0.4,0-0.8-0.2-1-0.6c-0.3-0.5-0.1-1.2,0.4-1.5l4.9-2.8c0.5-0.3,1.2-0.1,1.5,0.4s0.1,1.2-0.4,1.5l-4.9,2.8
		C55.4,100,55.2,100,55,100z"/>
</g>
</svg>
