<svg id="Group_77" data-name="Group 77" xmlns="http://www.w3.org/2000/svg" width="56" height="56" viewBox="0 0 56 56">
  <g id="Group_43" data-name="Group 43" transform="translate(8.344 8.344)">
    <path id="Path_99" data-name="Path 99" d="M53.428,54.212H15.684a.766.766,0,0,1-.784-.784V15.684a.766.766,0,0,1,.784-.784H53.428a.766.766,0,0,1,.784.784V53.428A.766.766,0,0,1,53.428,54.212ZM16.412,52.7H52.644V16.412H16.412Z" transform="translate(-14.9 -14.9)" fill="#0067e0"/>
  </g>
  <g id="Group_44" data-name="Group 44" transform="translate(14.392 14.336)">
    <path id="Path_100" data-name="Path 100" d="M50.4,52.984H44.8a2.635,2.635,0,0,1-1.848-.784L42,51.248a.986.986,0,0,0-.728-.336H37.4a.9.9,0,0,0-.728.336l-.952.952a2.539,2.539,0,0,1-1.848.784h-5.6A2.569,2.569,0,0,1,25.7,50.408V28.176A2.569,2.569,0,0,1,28.276,25.6H50.452a2.569,2.569,0,0,1,2.576,2.576V50.352A2.7,2.7,0,0,1,50.4,52.984ZM37.4,49.4h3.864a2.635,2.635,0,0,1,1.848.784l.952.952a.986.986,0,0,0,.728.336h5.6a1.063,1.063,0,0,0,1.064-1.064V28.176A1.063,1.063,0,0,0,50.4,27.112H28.22a1.063,1.063,0,0,0-1.064,1.064V50.352a1.063,1.063,0,0,0,1.064,1.064h5.6a.9.9,0,0,0,.728-.336l.952-.952A2.985,2.985,0,0,1,37.4,49.4Z" transform="translate(-25.7 -25.6)" fill="#0067e0"/>
  </g>
  <g id="Group_52" data-name="Group 52" transform="translate(8.344)">
    <g id="Group_45" data-name="Group 45">
      <path id="Path_101" data-name="Path 101" d="M15.684,6.16a.766.766,0,0,1-.784-.784V.784a.784.784,0,0,1,1.568,0V5.432A.836.836,0,0,1,15.684,6.16Z" transform="translate(-14.9)" fill="#0067e0"/>
    </g>
    <g id="Group_46" data-name="Group 46" transform="translate(6.272)">
      <path id="Path_102" data-name="Path 102" d="M26.884,6.16a.766.766,0,0,1-.784-.784V.784a.784.784,0,1,1,1.568,0V5.432A.755.755,0,0,1,26.884,6.16Z" transform="translate(-26.1)" fill="#0067e0"/>
    </g>
    <g id="Group_47" data-name="Group 47" transform="translate(12.6)">
      <path id="Path_103" data-name="Path 103" d="M38.184,6.16a.766.766,0,0,1-.784-.784V.784a.784.784,0,0,1,1.568,0V5.432A.836.836,0,0,1,38.184,6.16Z" transform="translate(-37.4)" fill="#0067e0"/>
    </g>
    <g id="Group_48" data-name="Group 48" transform="translate(18.872)">
      <path id="Path_104" data-name="Path 104" d="M49.384,6.16a.766.766,0,0,1-.784-.784V.784a.784.784,0,0,1,1.568,0V5.432A.755.755,0,0,1,49.384,6.16Z" transform="translate(-48.6)" fill="#0067e0"/>
    </g>
    <g id="Group_49" data-name="Group 49" transform="translate(25.144)">
      <path id="Path_105" data-name="Path 105" d="M60.584,6.16a.766.766,0,0,1-.784-.784V.784a.784.784,0,0,1,1.568,0V5.432A.755.755,0,0,1,60.584,6.16Z" transform="translate(-59.8)" fill="#0067e0"/>
    </g>
    <g id="Group_50" data-name="Group 50" transform="translate(31.472)">
      <path id="Path_106" data-name="Path 106" d="M71.884,6.16a.766.766,0,0,1-.784-.784V.784a.784.784,0,0,1,1.568,0V5.432A.792.792,0,0,1,71.884,6.16Z" transform="translate(-71.1)" fill="#0067e0"/>
    </g>
    <g id="Group_51" data-name="Group 51" transform="translate(37.744)">
      <path id="Path_107" data-name="Path 107" d="M83.084,6.16a.766.766,0,0,1-.784-.784V.784A.842.842,0,0,1,83.084,0a.766.766,0,0,1,.784.784V5.432A.755.755,0,0,1,83.084,6.16Z" transform="translate(-82.3)" fill="#0067e0"/>
    </g>
  </g>
  <g id="Group_60" data-name="Group 60" transform="translate(0 8.344)">
    <g id="Group_53" data-name="Group 53" transform="translate(0 37.744)">
      <path id="Path_108" data-name="Path 108" d="M5.376,83.868H.784a.784.784,0,1,1,0-1.568H5.432a.766.766,0,0,1,.784.784A.851.851,0,0,1,5.376,83.868Z" transform="translate(0 -82.3)" fill="#0067e0"/>
    </g>
    <g id="Group_54" data-name="Group 54" transform="translate(0 31.472)">
      <path id="Path_109" data-name="Path 109" d="M5.376,72.668H.784a.784.784,0,0,1,0-1.568H5.432a.766.766,0,0,1,.784.784A.9.9,0,0,1,5.376,72.668Z" transform="translate(0 -71.1)" fill="#0067e0"/>
    </g>
    <g id="Group_55" data-name="Group 55" transform="translate(0 25.144)">
      <path id="Path_110" data-name="Path 110" d="M5.376,61.368H.784a.784.784,0,0,1,0-1.568H5.432a.766.766,0,0,1,.784.784A.814.814,0,0,1,5.376,61.368Z" transform="translate(0 -59.8)" fill="#0067e0"/>
    </g>
    <g id="Group_56" data-name="Group 56" transform="translate(0 18.872)">
      <path id="Path_111" data-name="Path 111" d="M5.376,50.168H.784a.784.784,0,0,1,0-1.568H5.432a.766.766,0,0,1,.784.784A.814.814,0,0,1,5.376,50.168Z" transform="translate(0 -48.6)" fill="#0067e0"/>
    </g>
    <g id="Group_57" data-name="Group 57" transform="translate(0 12.544)">
      <path id="Path_112" data-name="Path 112" d="M5.376,38.868H.784a.784.784,0,1,1,0-1.568H5.432a.766.766,0,0,1,.784.784A.814.814,0,0,1,5.376,38.868Z" transform="translate(0 -37.3)" fill="#0067e0"/>
    </g>
    <g id="Group_58" data-name="Group 58" transform="translate(0 6.272)">
      <path id="Path_113" data-name="Path 113" d="M5.376,27.668H.784a.784.784,0,1,1,0-1.568H5.432a.766.766,0,0,1,.784.784A.851.851,0,0,1,5.376,27.668Z" transform="translate(0 -26.1)" fill="#0067e0"/>
    </g>
    <g id="Group_59" data-name="Group 59">
      <path id="Path_114" data-name="Path 114" d="M5.376,16.412H.784A.755.755,0,0,1,0,15.684.766.766,0,0,1,.784,14.9H5.432a.766.766,0,0,1,.784.784A.848.848,0,0,1,5.376,16.412Z" transform="translate(0 -14.9)" fill="#0067e0"/>
    </g>
  </g>
  <g id="Group_68" data-name="Group 68" transform="translate(8.344 49.784)">
    <g id="Group_61" data-name="Group 61" transform="translate(37.744)">
      <path id="Path_115" data-name="Path 115" d="M83.084,95.116a.766.766,0,0,1-.784-.784V89.684a.784.784,0,1,1,1.568,0v4.648A.766.766,0,0,1,83.084,95.116Z" transform="translate(-82.3 -88.9)" fill="#0067e0"/>
    </g>
    <g id="Group_62" data-name="Group 62" transform="translate(31.472)">
      <path id="Path_116" data-name="Path 116" d="M71.884,95.116a.766.766,0,0,1-.784-.784V89.684a.784.784,0,1,1,1.568,0v4.648A.8.8,0,0,1,71.884,95.116Z" transform="translate(-71.1 -88.9)" fill="#0067e0"/>
    </g>
    <g id="Group_63" data-name="Group 63" transform="translate(25.144)">
      <path id="Path_117" data-name="Path 117" d="M60.584,95.116a.766.766,0,0,1-.784-.784V89.684a.784.784,0,1,1,1.568,0v4.648A.766.766,0,0,1,60.584,95.116Z" transform="translate(-59.8 -88.9)" fill="#0067e0"/>
    </g>
    <g id="Group_64" data-name="Group 64" transform="translate(18.872)">
      <path id="Path_118" data-name="Path 118" d="M49.384,95.116a.766.766,0,0,1-.784-.784V89.684a.784.784,0,1,1,1.568,0v4.648A.766.766,0,0,1,49.384,95.116Z" transform="translate(-48.6 -88.9)" fill="#0067e0"/>
    </g>
    <g id="Group_65" data-name="Group 65" transform="translate(12.6)">
      <path id="Path_119" data-name="Path 119" d="M38.184,95.116a.766.766,0,0,1-.784-.784V89.684a.784.784,0,1,1,1.568,0v4.648A.842.842,0,0,1,38.184,95.116Z" transform="translate(-37.4 -88.9)" fill="#0067e0"/>
    </g>
    <g id="Group_66" data-name="Group 66" transform="translate(6.272)">
      <path id="Path_120" data-name="Path 120" d="M26.884,95.116a.766.766,0,0,1-.784-.784V89.684a.784.784,0,1,1,1.568,0v4.648A.766.766,0,0,1,26.884,95.116Z" transform="translate(-26.1 -88.9)" fill="#0067e0"/>
    </g>
    <g id="Group_67" data-name="Group 67">
      <path id="Path_121" data-name="Path 121" d="M15.684,95.116a.766.766,0,0,1-.784-.784V89.684a.784.784,0,1,1,1.568,0v4.648A.842.842,0,0,1,15.684,95.116Z" transform="translate(-14.9 -88.9)" fill="#0067e0"/>
    </g>
  </g>
  <g id="Group_76" data-name="Group 76" transform="translate(49.784 8.288)">
    <g id="Group_69" data-name="Group 69">
      <path id="Path_122" data-name="Path 122" d="M94.332,16.368H89.684a.784.784,0,1,1,0-1.568h4.648a.784.784,0,0,1,0,1.568Z" transform="translate(-88.9 -14.8)" fill="#0067e0"/>
    </g>
    <g id="Group_70" data-name="Group 70" transform="translate(0 6.328)">
      <path id="Path_123" data-name="Path 123" d="M94.332,27.668H89.684a.784.784,0,1,1,0-1.568h4.648a.784.784,0,0,1,0,1.568Z" transform="translate(-88.9 -26.1)" fill="#0067e0"/>
    </g>
    <g id="Group_71" data-name="Group 71" transform="translate(0 12.6)">
      <path id="Path_124" data-name="Path 124" d="M94.332,38.868H89.684a.784.784,0,1,1,0-1.568h4.648a.784.784,0,0,1,0,1.568Z" transform="translate(-88.9 -37.3)" fill="#0067e0"/>
    </g>
    <g id="Group_72" data-name="Group 72" transform="translate(0 18.928)">
      <path id="Path_125" data-name="Path 125" d="M94.332,50.168H89.684a.784.784,0,1,1,0-1.568h4.648a.784.784,0,0,1,0,1.568Z" transform="translate(-88.9 -48.6)" fill="#0067e0"/>
    </g>
    <g id="Group_73" data-name="Group 73" transform="translate(0 25.2)">
      <path id="Path_126" data-name="Path 126" d="M94.332,61.368H89.684a.784.784,0,1,1,0-1.568h4.648a.784.784,0,0,1,0,1.568Z" transform="translate(-88.9 -59.8)" fill="#0067e0"/>
    </g>
    <g id="Group_74" data-name="Group 74" transform="translate(0 31.528)">
      <path id="Path_127" data-name="Path 127" d="M94.332,72.668H89.684a.784.784,0,1,1,0-1.568h4.648a.766.766,0,0,1,.784.784A.8.8,0,0,1,94.332,72.668Z" transform="translate(-88.9 -71.1)" fill="#0067e0"/>
    </g>
    <g id="Group_75" data-name="Group 75" transform="translate(0 37.8)">
      <path id="Path_128" data-name="Path 128" d="M94.332,83.868H89.684a.784.784,0,1,1,0-1.568h4.648a.784.784,0,0,1,0,1.568Z" transform="translate(-88.9 -82.3)" fill="#0067e0"/>
    </g>
  </g>
</svg>
