<?xml version="1.0" encoding="utf-8"?>
<!-- Generator: Adobe Illustrator 24.1.0, SVG Export Plug-In . SVG Version: 6.00 Build 0)  -->
<svg version="1.1" id="Layer_1" xmlns="http://www.w3.org/2000/svg" xmlns:xlink="http://www.w3.org/1999/xlink" x="0px" y="0px"
	 viewBox="0 0 99.9 100" style="enable-background:new 0 0 99.9 100;" xml:space="preserve">
<path d="M97.2,33.3l-8.9-16.6L72.1,5L58.3,0l-20,0.3l-0.2,0.1l0,0l0,0L20.2,8.9L7,22.4L0.1,39.6L0,39.7l0.2,21.2L5.6,74l4.2,6.3
	l10.8,11.3l18.8,8.4L61,99.7L81.2,90l12.4-15.5l6.3-17.9L97.2,33.3z M56.5,59.1l-26.2-4.3l17.2-21.1L56.5,59.1z M48.9,33.2l24.7,5.3
	l-15.7,20L48.9,33.2z M58.7,61.1l21.7,6L63.1,82.3L58.7,61.1z M61.7,82.9l-23.8-2.5l19.3-18.8L61.7,82.9z M59,59.6l15.6-19.9
	l6.3,26.1L59,59.6z M49.1,31.7l13.5-17.4l10.9,22.6L49.1,31.7z M46.1,32.9l-17,20.9l-7.8-20.9H46.1z M21.8,31.5l13.7-17.3l10.8,17.2
	L21.8,31.5z M56.1,60.6L36.6,79.5L30,56.3L56.1,60.6z M61.1,84.3l-11,11.4L38,81.9L61.1,84.3z M80.4,69.2L74,89.4l-10-5.8L80.4,69.2
	z M76,39.5l15.9,8.8l-9.7,16.5L76,39.5z M64.4,14.4l18.5,7.4L75,36.4L64.4,14.4z M47.8,31.1L37,13.9h24.1L47.8,31.1z M34,12.7
	l-20.2,8.1l13-12.9L34,12.7z M28.5,7.2l18-4.4l-10.9,9.1L28.5,7.2z M33.2,14.6l-13,16.5l-8.2-8L33.2,14.6z M27.6,54.1l-20.8-7
	L20,33.6L27.6,54.1z M27.5,55.7L14.1,69.1L6.7,48.7L27.5,55.7z M28.5,56.8L35,79.6l-19.9-9.3L28.5,56.8z M48,95.6l-19-4.3l7.3-9.2
	L48,95.6z M62.8,84.7l9.7,5.5l-20,5.2L62.8,84.7z M82.3,68.2l7.4,7L76.1,88L82.3,68.2z M82.9,66.7L92,51.2l-1.8,22.3L82.9,66.7z
	 M75.9,37.7l7.9-14.4l7.9,23.1L75.9,37.7z M64.2,12.6l7.5-5.9l10,12.9L64.2,12.6z M37.6,12.9L49.4,3l11.3,9.9H37.6z M43.7,1.9
	L33.1,4.5l5.5-2.7L43.7,1.9z M23.1,9.3l-5.3,5.3l3.3-4.4L23.1,9.3z M19.2,32.2L6.8,45.1l4.3-20.7L19.2,32.2z M12.2,68.4L1.9,60.5
	l3.6-10.7L12.2,68.4z M3.1,63.3l9.8,7.4l-2.5,7.2L3.1,63.3z M35,81.2l-7.4,9.3L15.9,72.3L35,81.2z M27.6,91.8L27.6,91.8L27.6,91.8
	L27.6,91.8z M46.5,96.9l-6.7,1.5L32,93.6L46.5,96.9z M69.8,92.5l-9.1,5.7l-7.2-1.4L69.8,92.5z M85.8,80.9l-5.5,7.8l-3.4,0.6
	L85.8,80.9z M93.6,50.1l4.7,6.5l-6.4,14.3L93.6,50.1z M93.8,47.8l2.4-10L98,53.7L93.8,47.8z M92.8,45.3l-7.2-21.1l9.9,9.7L92.8,45.3
	z M75.6,9.5l10.9,7.9L84,20.2L75.6,9.5z M62.7,11.9L52.1,2.6L70,6.1L62.7,11.9z M10.1,22.2H9.3l3.5-3.6L10.1,22.2z M5.1,45.5
	l-3.5-5.6l7.3-12.6L5.1,45.5z M4.7,47.6l-3,8.8L1.5,42.6L4.7,47.6z M14,72.2L24.9,89l-13.5-9.4L14,72.2z M27.3,92.5l1.8,1.1
	l-2.8-1.2L27.3,92.5z M50.1,97.6l3.2,0.6L47,98.3L50.1,97.6z M74.7,91.2l0.7-0.1l-2.2,1.1L74.7,91.2z M92.4,73.6L92.4,73.6l0.2-0.5
	L92.4,73.6z M93.4,29.6L85,21.4l2.5-2.8L93.4,29.6z M62.4,3.1l-7.1-1.4l2.8-0.2L62.4,3.1z M8.1,23.6l1.1,0.1l-3.8,6.6L8.1,23.6z
	 M16.4,84.9l8.2,5.7l-3.1-0.4L16.4,84.9z"/>
</svg>
