<?xml version="1.0" encoding="utf-8"?>
<!-- Generator: Adobe Illustrator 24.1.0, SVG Export Plug-In . SVG Version: 6.00 Build 0)  -->
<svg version="1.1" id="Layer_1" xmlns="http://www.w3.org/2000/svg" xmlns:xlink="http://www.w3.org/1999/xlink" x="0px" y="0px"
	 viewBox="0 0 70.8 100" style="enable-background:new 0 0 70.8 100;" xml:space="preserve">
<g>
	<g>
		<path d="M61.6,46.5H39.5c-0.6,0-1.1-0.5-1.1-1.1s0.5-1.1,1.1-1.1h22.1c0.6,0,1.1,0.5,1.1,1.1C62.7,46,62.2,46.5,61.6,46.5z"/>
	</g>
	<g>
		<path d="M31.3,46.5H9.2c-0.6,0-1.1-0.5-1.1-1.1s0.5-1.1,1.1-1.1h22.1c0.6,0,1.1,0.5,1.1,1.1S31.9,46.5,31.3,46.5z"/>
	</g>
	<g>
		<path d="M65.7,50.6c-2.8,0-5.1-2.3-5.1-5.1s2.3-5.1,5.1-5.1c2.8,0,5.1,2.3,5.1,5.1S68.5,50.6,65.7,50.6z M65.7,42.4
			c-1.7,0-3,1.3-3,3s1.3,3,3,3s3-1.3,3-3C68.7,43.8,67.3,42.4,65.7,42.4z"/>
	</g>
	<g>
		<path d="M35.4,50.6c-2.8,0-5.1-2.3-5.1-5.1s2.3-5.1,5.1-5.1c2.8,0,5.1,2.3,5.1,5.1S38.2,50.6,35.4,50.6z M35.4,42.4
			c-1.7,0-3,1.3-3,3s1.3,3,3,3c1.7,0,3-1.3,3-3C38.4,43.8,37,42.4,35.4,42.4z"/>
	</g>
	<g>
		<path d="M12.3,90.2c-2.8,0-5.1-2.3-5.1-5.1c0-2.8,2.3-5.1,5.1-5.1s5.1,2.3,5.1,5.1C17.5,87.9,15.1,90.2,12.3,90.2z M12.3,82
			c-1.7,0-3,1.3-3,3s1.3,3,3,3s3-1.3,3-3C15.3,83.4,14,82,12.3,82z"/>
	</g>
	<g>
		<path d="M58.5,90.2c-2.8,0-5.1-2.3-5.1-5.1c0-2.8,2.3-5.1,5.1-5.1s5.1,2.3,5.1,5.1C63.6,87.9,61.3,90.2,58.5,90.2z M58.5,82
			c-1.7,0-3,1.3-3,3s1.3,3,3,3s3-1.3,3-3C61.5,83.4,60.2,82,58.5,82z"/>
	</g>
	<g>
		<path d="M35.4,77.2c-2.8,0-5.1-2.3-5.1-5.1c0-2.8,2.3-5.1,5.1-5.1c2.8,0,5.1,2.3,5.1,5.1C40.5,74.9,38.2,77.2,35.4,77.2z
			 M35.4,69.1c-1.7,0-3,1.3-3,3s1.3,3,3,3c1.7,0,3-1.3,3-3S37,69.1,35.4,69.1z"/>
	</g>
	<g>
		<path d="M5.1,50.6c-2.8,0-5.1-2.3-5.1-5.1s2.3-5.1,5.1-5.1s5.1,2.3,5.1,5.1C10.3,48.3,8,50.6,5.1,50.6z M5.1,42.4
			c-1.7,0-3,1.3-3,3s1.3,3,3,3s3-1.3,3-3C8.1,43.8,6.8,42.4,5.1,42.4z"/>
	</g>
	<g>
		<g>
			<path d="M45.1,11.6H25.7V3.4c0-1.9,1.5-3.4,3.4-3.4h12.5C43.5,0,45,1.5,45,3.4L45.1,11.6L45.1,11.6z M27.9,9.4h15v-6
				c0-0.7-0.6-1.3-1.3-1.3H29.2c-0.7,0-1.3,0.6-1.3,1.3V9.4z"/>
		</g>
		<g>
			<path d="M35.4,43.2L22.3,24l3.5-13.8c0.1-0.6,0.7-0.9,1.3-0.8c0.6,0.1,0.9,0.7,0.8,1.3l-3.3,12.9l10.8,15.8l10.8-15.8l-3.3-12.9
				c-0.1-0.6,0.2-1.2,0.8-1.3s1.2,0.2,1.3,0.8L48.5,24L35.4,43.2z"/>
		</g>
	</g>
	<g>
		<g>
			<g>
				<path d="M43,68.8c-0.4,0-0.7-0.2-0.9-0.5c-0.3-0.5-0.1-1.2,0.4-1.5l13.9-8l-14.3-8.2c-0.5-0.3-0.7-1-0.4-1.5
					c0.3-0.5,1-0.7,1.5-0.4l15.9,9.2c0.3,0.2,0.5,0.5,0.5,0.9s-0.2,0.7-0.5,0.9l-15.5,9C43.4,68.7,43.2,68.8,43,68.8z"/>
			</g>
			<g>
				<path d="M27.8,68.8c-0.2,0-0.4,0-0.5-0.1l-15.5-9c-0.3-0.2-0.5-0.5-0.5-0.9s0.2-0.7,0.5-0.9l15.8-9.1c0.5-0.3,1.2-0.1,1.5,0.4
					s0.1,1.2-0.4,1.5l-14.3,8.1l13.9,8c0.5,0.3,0.7,1,0.4,1.5C28.5,68.6,28.2,68.8,27.8,68.8z"/>
			</g>
			<g>
				<path d="M12.3,77.7c-0.6,0-1.1-0.5-1.1-1.1V58.8c0-0.6,0.5-1.1,1.1-1.1s1.1,0.5,1.1,1.1v17.9C13.4,77.3,12.9,77.7,12.3,77.7z"/>
			</g>
			<g>
				<path d="M35.4,100l-16.6-9.6c-0.5-0.3-0.7-1-0.4-1.5s1-0.7,1.5-0.4l15.5,9l15-8.6c0.5-0.3,1.2-0.1,1.5,0.4s0.1,1.2-0.4,1.5
					L35.4,100z"/>
			</g>
			<g>
				<path d="M58.5,77.7c-0.6,0-1.1-0.5-1.1-1.1V58.8c0-0.6,0.5-1.1,1.1-1.1s1.1,0.5,1.1,1.1v17.9C59.6,77.3,59.1,77.7,58.5,77.7z"/>
			</g>
		</g>
		<g>
			<path d="M35.4,90.9c-0.6,0-1.1-0.5-1.1-1.1v-9.3c0-0.6,0.5-1.1,1.1-1.1s1.1,0.5,1.1,1.1v9.3C36.5,90.4,36,90.9,35.4,90.9z"/>
		</g>
	</g>
</g>
</svg>
