<svg xmlns="http://www.w3.org/2000/svg" width="31.531" height="56" viewBox="0 0 31.531 56">
  <g id="Group_111" data-name="Group 111" transform="translate(-31.478 -28.2)">
    <g id="Group_103" data-name="Group 103" transform="translate(37.969 28.2)">
      <path id="Path_146" data-name="Path 146" d="M54.073,36.7a.866.866,0,0,1-.858-.858,5.85,5.85,0,0,0-11.7,0,.858.858,0,1,1-1.716,0,7.643,7.643,0,0,1,15.287,0A1.156,1.156,0,0,1,54.073,36.7Z" transform="translate(-39.8 -28.2)" fill="#0067e0"/>
    </g>
    <g id="Group_110" data-name="Group 110" transform="translate(31.478 33.114)">
      <g id="Group_104" data-name="Group 104" transform="translate(23.182 24.022)">
        <path id="Path_147" data-name="Path 147" d="M62.058,86.67a.866.866,0,0,1-.858-.858c0-4.836,1.872-8.033,3.744-11.465l.936-1.638A16.122,16.122,0,0,0,67.6,66.158a.936.936,0,0,1,.936-.858.885.885,0,0,1,.858.936,18.9,18.9,0,0,1-1.95,7.409c-.312.546-.624,1.17-.936,1.716-1.872,3.354-3.51,6.24-3.51,10.607A1.029,1.029,0,0,1,62.058,86.67Z" transform="translate(-61.2 -65.3)" fill="#0067e0"/>
      </g>
      <g id="Group_105" data-name="Group 105" transform="translate(16.084 9.722)">
        <path id="Path_148" data-name="Path 148" d="M57.326,56.82h0a.837.837,0,0,1-.858-.936c0-.936.078-1.716.078-2.418.156-3.276.156-4.212-.39-4.6-.546-.312-1.17-.312-2.574,1.17a.882.882,0,1,1-1.248-1.248c.78-.78,2.73-2.73,4.836-1.326,1.4.936,1.326,2.34,1.17,6.162,0,.7-.078,1.482-.078,2.34A1,1,0,0,1,57.326,56.82Z" transform="translate(-52.1 -46.966)" fill="#0067e0"/>
      </g>
      <g id="Group_106" data-name="Group 106" transform="translate(20.686 12.296)">
        <path id="Path_149" data-name="Path 149" d="M63.226,60.2h0a.837.837,0,0,1-.858-.936c0-.858.078-1.716.078-2.418.156-3.276.156-4.212-.39-4.6-.546-.312-1.17-.312-2.574,1.092a.882.882,0,0,1-1.248-1.248c.78-.78,2.73-2.73,4.836-1.326,1.4.936,1.326,2.34,1.17,6.162,0,.7-.078,1.482-.078,2.34A1,1,0,0,1,63.226,60.2Z" transform="translate(-58 -50.266)" fill="#0067e0"/>
      </g>
      <g id="Group_107" data-name="Group 107" transform="translate(25.21 15.728)">
        <path id="Path_150" data-name="Path 150" d="M69.026,64.6h0a.837.837,0,0,1-.858-.936c0-.936.078-1.716.078-2.418.156-3.276.156-4.212-.39-4.6-.546-.312-1.17-.312-2.574,1.092a.882.882,0,0,1-1.248-1.248c.78-.78,2.73-2.73,4.836-1.326,1.4.936,1.326,2.34,1.17,6.162,0,.7-.078,1.482-.078,2.34A1,1,0,0,1,69.026,64.6Z" transform="translate(-63.8 -54.666)" fill="#0067e0"/>
      </g>
      <g id="Group_108" data-name="Group 108" transform="translate(4.229 43.677)">
        <path id="Path_151" data-name="Path 151" d="M59.674,97.909a.866.866,0,0,1-.858-.858V93.074a.782.782,0,0,0-.78-.78H39.4a.782.782,0,0,0-.78.78v3.978a.858.858,0,0,1-1.716,0V93.074A2.6,2.6,0,0,1,39.474,90.5H58.036a2.6,2.6,0,0,1,2.574,2.574v3.978A.885.885,0,0,1,59.674,97.909Z" transform="translate(-36.9 -90.5)" fill="#0067e0"/>
      </g>
      <g id="Group_109" data-name="Group 109">
        <path id="Path_152" data-name="Path 152" d="M39.762,79.893a.866.866,0,0,1-.858-.858V73.5c0-7.8-2.028-10.217-4.836-13.571L33.6,59.38A11.177,11.177,0,0,1,31.5,52.517a3.293,3.293,0,0,1,3.12-3.12,3.2,3.2,0,0,1,3.51,2.652c.078.312.078.624.156.936A3.223,3.223,0,0,0,40,55.636a1.583,1.583,0,0,0,1.56-.078,1.638,1.638,0,0,0,.78-1.4V37.7a3.212,3.212,0,0,1,3.2-3.2,3.264,3.264,0,0,1,3.2,3.2V51.425a.858.858,0,0,1-1.716,0V37.7a1.4,1.4,0,0,0-2.808,0V54.155A3.4,3.4,0,0,1,42.57,57.04a3.286,3.286,0,0,1-3.276.156,5.051,5.051,0,0,1-2.73-4.134c0-.234-.078-.468-.078-.7a1.471,1.471,0,0,0-1.638-1.248,1.583,1.583,0,0,0-1.482,1.482,9.49,9.49,0,0,0,1.716,5.616l.39.468C38.359,62.188,40.7,65,40.7,73.419v5.538A.9.9,0,0,1,39.762,79.893Z" transform="translate(-31.478 -34.5)" fill="#0067e0"/>
      </g>
    </g>
  </g>
</svg>
