<?xml version="1.0" encoding="utf-8"?>
<!-- Generator: Adobe Illustrator 24.1.0, SVG Export Plug-In . SVG Version: 6.00 Build 0)  -->
<svg version="1.1" id="Layer_1" xmlns="http://www.w3.org/2000/svg" xmlns:xlink="http://www.w3.org/1999/xlink" x="0px" y="0px"
	 viewBox="0 0 86.8 99.9" style="enable-background:new 0 0 86.8 99.9;" xml:space="preserve">
<g>
	<g>
		<path d="M43.4,51c-0.2,0-0.4-0.1-0.6-0.2L0.6,26.5c-0.4-0.2-0.6-0.6-0.6-1s0.2-0.8,0.6-1L42.8,0.2c0.4-0.2,0.8-0.2,1.2,0
			l42.2,24.4c0.4,0.2,0.6,0.6,0.6,1s-0.2,0.8-0.6,1L44,50.9C43.8,51,43.6,51,43.4,51z M3.5,25.5l39.9,23l39.9-23l-39.9-23L3.5,25.5z
			"/>
	</g>
	<g>
		<g>
			<path d="M49.9,54.9c-0.3,0-0.6-0.1-0.8-0.3s-0.3-0.5-0.3-0.8s0.1-0.6,0.3-0.8c0.4-0.4,1.2-0.4,1.7,0c0.2,0.2,0.3,0.5,0.3,0.8
				s-0.1,0.6-0.3,0.8C50.5,54.7,50.2,54.9,49.9,54.9z"/>
		</g>
		<g>
			<path d="M79.9,72.2c-0.6-0.3-0.7-1-0.4-1.6l0,0c0.3-0.6,1-0.7,1.6-0.4l0,0c0.6,0.3,0.7,1,0.4,1.6l0,0c-0.2,0.4-0.6,0.6-1,0.6l0,0
				C80.3,72.4,80.1,72.3,79.9,72.2z M74.8,69.3c-0.6-0.3-0.7-1-0.4-1.6l0,0c0.3-0.6,1-0.7,1.6-0.4l0,0c0.6,0.3,0.8,1,0.4,1.6l0,0
				c-0.2,0.4-0.6,0.6-1,0.6l0,0C75.2,69.4,75,69.4,74.8,69.3z M69.7,66.3c-0.6-0.3-0.8-1-0.4-1.6l0,0c0.3-0.6,1-0.7,1.6-0.4l0,0
				c0.6,0.3,0.7,1,0.4,1.6l0,0c-0.2,0.4-0.6,0.6-1,0.6l0,0C70.1,66.5,69.9,66.5,69.7,66.3z M64.6,63.5c-0.6-0.3-0.7-1-0.4-1.6l0,0
				c0.3-0.6,1-0.7,1.6-0.4l0,0c0.6,0.3,0.7,1,0.4,1.6l0,0c-0.2,0.4-0.6,0.6-1,0.6l0,0C65,63.7,64.8,63.5,64.6,63.5z M59.5,60.5
				c-0.6-0.3-0.7-1-0.4-1.6l0,0c0.3-0.6,1-0.8,1.6-0.4l0,0c0.6,0.3,0.8,1,0.4,1.6l0,0c-0.2,0.4-0.6,0.6-1,0.6l0,0
				C59.9,60.7,59.7,60.7,59.5,60.5z M54.4,57.5c-0.6-0.3-0.7-1-0.4-1.6l0,0c0.3-0.6,1-0.7,1.6-0.4l0,0c0.6,0.3,0.7,1,0.4,1.6l0,0
				c-0.2,0.4-0.6,0.6-1,0.6l0,0C54.8,57.8,54.6,57.7,54.4,57.5z"/>
		</g>
		<g>
			<path d="M85.6,75.3c-0.3,0-0.6-0.1-0.8-0.3c-0.2-0.2-0.3-0.5-0.3-0.8s0.1-0.6,0.3-0.8c0.4-0.4,1.2-0.4,1.7,0
				c0.2,0.2,0.3,0.5,0.3,0.8s-0.1,0.6-0.3,0.8C86.2,75.2,85.9,75.3,85.6,75.3z"/>
		</g>
	</g>
	<g>
		<g>
			<path d="M1.2,75.3c-0.3,0-0.6-0.1-0.8-0.3c-0.2-0.2-0.3-0.5-0.3-0.8s0.1-0.6,0.3-0.8c0.4-0.4,1.2-0.4,1.7,0
				c0.1,0.2,0.3,0.5,0.3,0.8s-0.1,0.6-0.3,0.8C1.8,75.2,1.5,75.3,1.2,75.3z"/>
		</g>
		<g>
			<path d="M5.3,71.8c-0.3-0.6-0.1-1.3,0.4-1.6l0,0c0.6-0.3,1.3-0.1,1.6,0.4l0,0c0.3,0.6,0.1,1.3-0.4,1.6l0,0
				c-0.2,0.1-0.4,0.2-0.6,0.2l0,0C5.9,72.4,5.5,72.2,5.3,71.8z M10.3,68.9c-0.3-0.6-0.1-1.3,0.4-1.6l0,0c0.6-0.3,1.3-0.1,1.6,0.4
				l0,0c0.3,0.6,0.1,1.3-0.4,1.6l0,0c-0.2,0.1-0.4,0.2-0.6,0.2l0,0C10.9,69.5,10.5,69.3,10.3,68.9z M15.4,66
				c-0.3-0.6-0.1-1.3,0.4-1.6l0,0c0.6-0.3,1.3-0.1,1.6,0.4l0,0c0.3,0.6,0.1,1.3-0.4,1.6l0,0c-0.2,0.1-0.4,0.2-0.6,0.2l0,0
				C16,66.6,15.6,66.4,15.4,66z M20.5,63.2c-0.3-0.6-0.1-1.3,0.4-1.6l0,0c0.6-0.3,1.3-0.1,1.6,0.4l0,0c0.3,0.6,0.1,1.3-0.4,1.6l0,0
				c-0.2,0.1-0.4,0.2-0.6,0.2l0,0C21.1,63.7,20.7,63.5,20.5,63.2z M25.5,60.2c-0.3-0.6-0.1-1.3,0.4-1.6l0,0c0.6-0.3,1.3-0.1,1.6,0.4
				l0,0c0.3,0.6,0.1,1.3-0.4,1.6l0,0c-0.2,0.1-0.4,0.2-0.6,0.2l0,0C26.1,60.8,25.8,60.5,25.5,60.2z M30.6,57.2
				c-0.3-0.6-0.1-1.3,0.4-1.6l0,0c0.6-0.3,1.3-0.1,1.6,0.4l0,0c0.3,0.6,0.1,1.3-0.4,1.6l0,0c-0.2,0.1-0.4,0.2-0.6,0.2l0,0
				C31.2,57.9,30.8,57.7,30.6,57.2z"/>
		</g>
		<g>
			<path d="M36.7,54.9c-0.3,0-0.6-0.1-0.8-0.3s-0.3-0.5-0.3-0.8s0.1-0.6,0.3-0.8c0.4-0.4,1.2-0.4,1.7,0c0.2,0.2,0.3,0.5,0.3,0.8
				s-0.1,0.6-0.3,0.8C37.3,54.8,37,54.9,36.7,54.9z"/>
		</g>
	</g>
	<g>
		<path d="M43.4,99.9L0,74.9V25.5c0-0.6,0.5-1.2,1.2-1.2c0.6,0,1.2,0.5,1.2,1.2v48.1l41,23.7l41-23.7V25.5c0-0.6,0.5-1.2,1.2-1.2
			c0.6,0,1.2,0.5,1.2,1.2v49.5L43.4,99.9z"/>
	</g>
	<g>
		<path d="M43.4,83.4c-0.6,0-1.2-0.5-1.2-1.2V49.9c0-0.6,0.5-1.2,1.2-1.2c0.6,0,1.2,0.5,1.2,1.2v32.4C44.6,82.8,44,83.4,43.4,83.4z"
			/>
	</g>
	<g>
		<path d="M43.4,44.2c-0.6,0-1.2-0.5-1.2-1.2c0-0.6,0.5-1.2,1.2-1.2c0.6,0,1.2,0.5,1.2,1.2l0,0C44.6,43.5,44,44.2,43.4,44.2z
			 M43.4,37.9c-0.6,0-1.2-0.5-1.2-1.2c0-0.6,0.5-1.2,1.2-1.2c0.6,0,1.2,0.5,1.2,1.2l0,0C44.6,37.4,44,37.9,43.4,37.9z M43.4,31.7
			c-0.6,0-1.2-0.5-1.2-1.2c0-0.6,0.5-1.2,1.2-1.2c0.6,0,1.2,0.5,1.2,1.2l0,0C44.6,31.2,44,31.7,43.4,31.7z M43.4,25.4
			c-0.6,0-1.2-0.5-1.2-1.2c0-0.6,0.5-1.2,1.2-1.2c0.6,0,1.2,0.5,1.2,1.2l0,0C44.6,24.9,44,25.4,43.4,25.4z M43.4,19.2
			c-0.6,0-1.2-0.5-1.2-1.2c0-0.6,0.5-1.2,1.2-1.2c0.6,0,1.2,0.5,1.2,1.2l0,0C44.6,18.7,44,19.2,43.4,19.2z M43.4,12.9
			c-0.6,0-1.2-0.5-1.2-1.2c0-0.6,0.5-1.2,1.2-1.2c0.6,0,1.2,0.5,1.2,1.2l0,0C44.6,12.3,44,12.9,43.4,12.9z M43.4,6.6
			c-0.6,0-1.2-0.5-1.2-1.2s0.5-1.2,1.2-1.2c0.6,0,1.2,0.5,1.2,1.2l0,0C44.6,6.1,44,6.6,43.4,6.6z"/>
	</g>
</g>
</svg>
