<svg xmlns="http://www.w3.org/2000/svg" width="56" height="56.692" viewBox="0 0 56 56.692">
  <g id="Group_42" data-name="Group 42" transform="translate(-18.675 -7.985)">
    <g id="Group_41" data-name="Group 41" transform="translate(18.675 20.015)">
      <g id="Group_37" data-name="Group 37" transform="translate(18.856 7.506)">
        <path id="Path_89" data-name="Path 89" d="M55.176,54.551a9.076,9.076,0,1,1,9.076-9.076A9.067,9.067,0,0,1,55.176,54.551Zm0-16.707a7.632,7.632,0,1,0,7.632,7.632A7.659,7.659,0,0,0,55.176,37.844Z" transform="translate(-46.1 -36.4)" fill="#0067e0"/>
      </g>
      <g id="Group_38" data-name="Group 38" transform="translate(40.535 7.39)">
        <path id="Path_90" data-name="Path 90" d="M78.572,54.292a.977.977,0,0,1-.413-.138.776.776,0,0,1-.275-1.031,15.343,15.343,0,0,0,2.131-7.769,14.913,14.913,0,0,0-2.269-7.975.744.744,0,1,1,1.238-.825,16.3,16.3,0,0,1,2.475,8.732,16.721,16.721,0,0,1-2.338,8.525A.487.487,0,0,1,78.572,54.292Z" transform="translate(-77.631 -36.231)" fill="#0067e0"/>
      </g>
      <g id="Group_39" data-name="Group 39" transform="translate(11.362 7.753)">
        <path id="Path_91" data-name="Path 91" d="M37.881,53.838a.756.756,0,0,1-.688-.413A16.662,16.662,0,0,1,35.2,45.519a16.347,16.347,0,0,1,2.269-8.388.755.755,0,1,1,1.306.756,14.966,14.966,0,0,0-2.063,7.632,15.307,15.307,0,0,0,1.788,7.15.776.776,0,0,1-.275,1.031C38.156,53.838,38.019,53.838,37.881,53.838Z" transform="translate(-35.2 -36.759)" fill="#0067e0"/>
      </g>
      <g id="Group_40" data-name="Group 40" transform="translate(0 0)">
        <path id="Path_92" data-name="Path 92" d="M47.019,58.565h-.344c-1.031.069-15.676.344-27.845-16.088a.723.723,0,0,1,0-.894c12.1-16.432,26.814-16.157,27.845-16.088,1.031-.069,15.676-.344,27.845,16.088a.723.723,0,0,1,0,.894C63.107,57.878,49.563,58.565,47.019,58.565Zm-.413-1.444h0c.206,0,14.507.481,26.264-15.057-11.757-15.538-26.058-15.057-26.2-15.057h-.069c-.138,0-14.507-.481-26.264,15.057C32.1,57.6,46.469,57.121,46.606,57.121Z" transform="translate(-18.675 -25.483)" fill="#0067e0"/>
      </g>
    </g>
    <path id="Path_93" data-name="Path 93" d="M59.088,17.758a.688.688,0,0,1-.688-.688v-8.4a.688.688,0,1,1,1.375,0v8.4A.687.687,0,0,1,59.088,17.758Z" transform="translate(-12.413)" fill="#0067e0"/>
    <path id="Path_94" data-name="Path 94" d="M59.088,86a.687.687,0,0,1-.688-.688v-8.4a.688.688,0,1,1,1.375,0v8.4A.687.687,0,0,1,59.088,86Z" transform="translate(-12.413 -21.323)" fill="#0067e0"/>
    <path id="Path_95" data-name="Path 95" d="M71.166,20.869a.688.688,0,0,1-.62-.985l3.622-7.577a.687.687,0,1,1,1.24.593l-3.621,7.577A.688.688,0,0,1,71.166,20.869Z" transform="translate(-16.186 -1.228)" fill="#0067e0"/>
    <path id="Path_96" data-name="Path 96" d="M41.742,82.441a.68.68,0,0,1-.3-.067.688.688,0,0,1-.324-.917l3.621-7.577a.688.688,0,0,1,1.241.593L42.362,82.05A.688.688,0,0,1,41.742,82.441Z" transform="translate(-6.993 -20.467)" fill="#0067e0"/>
    <path id="Path_97" data-name="Path 97" d="M45.992,20.577a.69.69,0,0,1-.627-.4L41.91,12.517a.688.688,0,1,1,1.253-.566l3.456,7.655a.688.688,0,0,1-.627.971Z" transform="translate(-7.241 -1.113)" fill="#0067e0"/>
    <path id="Path_98" data-name="Path 98" d="M74.068,82.775a.687.687,0,0,1-.627-.4l-3.455-7.655a.687.687,0,1,1,1.253-.565L74.694,81.8a.686.686,0,0,1-.344.909A.672.672,0,0,1,74.068,82.775Z" transform="translate(-16.014 -20.547)" fill="#0067e0"/>
  </g>
</svg>
