<?xml version="1.0" encoding="utf-8"?>
<!-- Generator: Adobe Illustrator 24.1.0, SVG Export Plug-In . SVG Version: 6.00 Build 0)  -->
<svg version="1.1" id="Layer_1" xmlns="http://www.w3.org/2000/svg" xmlns:xlink="http://www.w3.org/1999/xlink" x="0px" y="0px"
	 viewBox="0 0 175.7 39.6" style="enable-background:new 0 0 175.7 39.6;" xml:space="preserve">
<style type="text/css">
	.st0{fill-rule:evenodd;clip-rule:evenodd;}
	.st1{fill-rule:evenodd;clip-rule:evenodd;fill:#808080;}
</style>
<g>
	<polygon class="st0" points="38.3,7.6 38.3,0.1 46.2,0.1 46.2,7.6 38.3,7.6 	"/>
	<polygon class="st0" points="51.1,37.2 51.1,11.9 59,11.9 59,37.2 51.1,37.2 	"/>
	<polygon class="st0" points="0,0.1 7.8,0.1 7.8,37.2 0,37.2 0,0.1 	"/>
	<polygon class="st0" points="25.6,37.2 25.6,0.1 33.4,0.1 33.4,37.2 25.6,37.2 	"/>
	<polygon class="st0" points="12.8,25.5 12.8,0.1 20.6,0.1 20.6,25.5 12.8,25.5 	"/>
	<polygon class="st0" points="51.1,7.6 51.1,0.1 71.7,0.1 71.7,7.6 51.1,7.6 	"/>
	<path class="st0" d="M97.1,0v8.9H95l0.1-6.4l0-0.9L95,2c-0.1,0.5-0.1,0.6-0.2,0.9l-1.7,6h-1.9l-1.6-5.7l-0.4-1.6
		c0,0.7,0,0.9,0.1,1.7l0.1,5.6h-2.2V0h3.3l1.4,5l0.3,1.4c0.1-0.6,0.1-0.7,0.2-1.1L93.8,0H97.1L97.1,0z"/>
	<path class="st0" d="M98.8,4.2c0-0.5,0.1-1,0.7-1.5c0.6-0.5,1.4-0.6,2.2-0.6c0.8,0,2.8,0.2,2.8,1.9v3.8c0,0.7,0,0.8,0.2,1h-1.9V8.3
		c-0.5,0.4-1.1,0.8-2,0.8c-1.5,0-2.2-1.1-2.2-2c0-1.1,0.8-1.7,1.4-1.9c0.5-0.2,1.8-0.5,2.6-0.6V4.3c0-0.3-0.1-0.8-0.7-0.8
		c-0.9,0-1,0.5-1,0.8H98.8L98.8,4.2z M101.3,6.2c-0.3,0.1-0.8,0.3-0.8,0.8c0,0.3,0.3,0.7,0.7,0.7c0.2,0,0.5-0.1,0.7-0.2
		c0.6-0.4,0.7-1,0.7-1.7L101.3,6.2L101.3,6.2z"/>
	<path class="st0" d="M106.5,6.7c0.5,0.5,1.2,0.9,1.9,0.9c0.5,0,1.2-0.2,1.2-0.6c0-0.2-0.1-0.3-0.3-0.4c-0.3-0.2-0.7-0.2-1.1-0.3
		c-0.3-0.1-0.6-0.1-0.9-0.2c-0.4-0.1-0.8-0.3-1.1-0.6c-0.3-0.3-0.5-0.7-0.5-1.2c0-1.1,0.9-2.2,2.8-2.2c1.6,0,2.5,0.7,2.9,1l-1.2,1.1
		c-0.6-0.5-1.2-0.7-1.7-0.7c-0.8,0-0.9,0.3-0.9,0.5c0,0.4,0.4,0.5,1,0.6c1.3,0.2,2.9,0.6,2.9,2.2c0,1.6-1.6,2.3-3.1,2.3
		c-1.8,0-2.8-0.9-3.2-1.3L106.5,6.7L106.5,6.7z"/>
	<path class="st0" d="M113.1,6.7c0.5,0.5,1.2,0.9,1.9,0.9c0.5,0,1.2-0.2,1.2-0.6c0-0.2-0.1-0.3-0.3-0.4c-0.3-0.2-0.7-0.2-1.1-0.3
		c-0.3-0.1-0.6-0.1-0.9-0.2c-0.4-0.1-0.8-0.3-1.1-0.6c-0.3-0.3-0.5-0.7-0.5-1.2c0-1.1,0.9-2.2,2.8-2.2c1.6,0,2.5,0.7,2.9,1l-1.2,1.1
		c-0.6-0.5-1.2-0.7-1.7-0.7c-0.8,0-0.9,0.3-0.9,0.5c0,0.4,0.4,0.5,1,0.6c1.3,0.2,2.9,0.6,2.9,2.2c0,1.6-1.6,2.3-3.1,2.3
		c-1.8,0-2.8-0.9-3.2-1.3L113.1,6.7L113.1,6.7z"/>
	<path class="st0" d="M119.4,4.2c0-0.5,0.1-1,0.7-1.5c0.6-0.5,1.4-0.6,2.2-0.6c0.8,0,2.8,0.2,2.8,1.9v3.8c0,0.7,0,0.8,0.2,1h-1.9
		V8.3c-0.5,0.4-1.1,0.8-2,0.8c-1.5,0-2.2-1.1-2.2-2c0-1.1,0.8-1.7,1.4-1.9c0.5-0.2,1.8-0.5,2.6-0.6V4.3c0-0.3-0.1-0.8-0.7-0.8
		c-0.9,0-1,0.5-1,0.8H119.4L119.4,4.2z M121.8,6.2C121.5,6.3,121,6.5,121,7c0,0.3,0.3,0.7,0.7,0.7c0.2,0,0.5-0.1,0.7-0.2
		c0.6-0.4,0.7-1,0.7-1.7L121.8,6.2L121.8,6.2z"/>
	<path class="st0" d="M132.5,7.4c-0.2,0.4-0.5,0.8-1,1.2c-0.5,0.4-1.2,0.6-1.9,0.6c-1.3,0-3.3-0.8-3.3-3.5c0-1.9,1.1-3.5,3.3-3.5
		c0.7,0,2,0.2,2.8,1.6L131,4.6c-0.1-0.2-0.2-0.5-0.6-0.7c-0.2-0.1-0.4-0.2-0.7-0.2c-1,0-1.4,1.2-1.4,2c0,0.9,0.4,2,1.5,2
		c0.1,0,0.6,0,1-0.5c0.2-0.2,0.2-0.3,0.3-0.5L132.5,7.4L132.5,7.4z"/>
	<path class="st0" d="M134.8,0v3c0.3-0.3,0.8-0.9,1.9-0.9c0.5,0,1,0.1,1.4,0.5c0.6,0.5,0.7,1.1,0.7,2v4.3h-1.9V5.5
		c0-0.5,0-0.8-0.1-1c-0.2-0.6-0.7-0.7-0.9-0.7c-0.3,0-0.6,0.2-0.8,0.4c-0.3,0.3-0.3,0.9-0.3,1.5v3.3h-1.9V0H134.8L134.8,0z"/>
	<path class="st0" d="M144.4,2.3h1.9v6.6h-1.9V8.3c-0.2,0.2-0.3,0.3-0.7,0.5c-0.4,0.2-0.8,0.3-1.3,0.3c-0.4,0-1.2-0.1-1.7-0.7
		c-0.3-0.5-0.4-0.9-0.4-1.9V2.3h2v4.1c0,0.3,0,0.6,0.2,0.8c0.1,0.2,0.4,0.3,0.8,0.3c0.1,0,0.4,0,0.7-0.2c0.4-0.3,0.4-0.6,0.4-0.9
		V2.3L144.4,2.3z"/>
	<path class="st0" d="M148.5,6.7c0.5,0.5,1.2,0.9,1.9,0.9c0.5,0,1.2-0.2,1.2-0.6c0-0.2-0.1-0.3-0.3-0.4c-0.3-0.2-0.7-0.2-1.1-0.3
		c-0.3-0.1-0.6-0.1-0.9-0.2c-0.4-0.1-0.8-0.3-1.1-0.6c-0.3-0.3-0.5-0.7-0.5-1.2c0-1.1,0.9-2.2,2.8-2.2c1.6,0,2.5,0.7,2.9,1l-1.2,1.1
		c-0.6-0.5-1.2-0.7-1.7-0.7c-0.8,0-0.9,0.3-0.9,0.5c0,0.4,0.4,0.5,1.1,0.6c1.3,0.2,2.9,0.6,2.9,2.2c0,1.6-1.6,2.3-3.1,2.3
		c-1.8,0-2.8-0.9-3.2-1.3L148.5,6.7L148.5,6.7z"/>
	<path class="st0" d="M160.9,7.3c-0.2,0.3-0.5,0.7-0.8,1c-0.6,0.5-1.4,0.9-2.5,0.9c-2,0-3.3-1.3-3.3-3.4c0-1.6,0.8-3.6,3.4-3.6
		c0.4,0,1.5,0,2.4,0.9c0.9,0.9,0.9,2.2,0.9,3h-4.7c0,0.8,0.5,1.6,1.5,1.6c1.1,0,1.4-0.7,1.7-1.2L160.9,7.3L160.9,7.3z M159,4.8
		c0-0.3-0.1-0.6-0.4-0.9c-0.2-0.2-0.6-0.4-0.9-0.4c-0.5,0-0.8,0.2-1,0.4c-0.3,0.3-0.3,0.6-0.4,0.9H159L159,4.8z"/>
	<path class="st0" d="M162.3,0.4h1.9v2.1h1.3v1.2h-1.3v3c0,0.4,0,0.7,0.5,0.7l0.7,0v1.5c-0.4,0.1-0.7,0.1-1,0.1
		c-0.7,0-1.4,0-1.8-0.6c-0.3-0.4-0.3-0.9-0.3-1.5V3.7h-1V2.5h1V0.4L162.3,0.4z"/>
	<path class="st0" d="M166.1,0.4h1.9v2.1h1.3v1.2H168v3c0,0.4,0,0.7,0.5,0.7l0.7,0v1.5c-0.4,0.1-0.7,0.1-1,0.1c-0.7,0-1.4,0-1.8-0.6
		c-0.3-0.4-0.3-0.9-0.3-1.5V3.7h-1V2.5h1V0.4L166.1,0.4z"/>
	<path class="st0" d="M170.6,6.7c0.5,0.5,1.2,0.9,1.9,0.9c0.5,0,1.2-0.2,1.2-0.6c0-0.2-0.1-0.3-0.3-0.4c-0.3-0.2-0.7-0.2-1.1-0.3
		c-0.3-0.1-0.6-0.1-0.9-0.2c-0.4-0.1-0.8-0.3-1.1-0.6c-0.3-0.3-0.5-0.7-0.5-1.2c0-1.1,0.9-2.2,2.8-2.2c1.6,0,2.5,0.7,2.9,1l-1.2,1.1
		c-0.6-0.5-1.2-0.7-1.7-0.7c-0.8,0-0.9,0.3-0.9,0.5c0,0.4,0.4,0.5,1,0.6c1.3,0.2,2.9,0.6,2.9,2.2c0,1.6-1.6,2.3-3.1,2.3
		c-1.8,0-2.8-0.9-3.2-1.3L170.6,6.7L170.6,6.7z"/>
	<polygon class="st0" points="89.5,14.1 89.5,23 87.3,23 87.3,14.1 89.5,14.1 	"/>
	<path class="st0" d="M93.3,17c0.2-0.2,0.3-0.4,0.7-0.5c0.3-0.1,0.7-0.2,1.2-0.2c0.4,0,0.8,0.1,1.2,0.3c0.7,0.4,0.9,1,0.9,2V23h-1.9
		v-3.7c0-0.6,0-0.8-0.1-1c-0.2-0.4-0.5-0.5-0.9-0.5c-1,0-1,0.8-1,1.6V23h-1.9v-6.6h2V17L93.3,17z"/>
	<path class="st0" d="M99.3,20.8c0.5,0.5,1.2,0.9,1.9,0.9c0.5,0,1.2-0.2,1.2-0.6c0-0.2-0.1-0.3-0.3-0.4c-0.3-0.2-0.7-0.2-1.1-0.3
		c-0.3-0.1-0.6-0.1-0.9-0.2c-0.4-0.1-0.8-0.3-1.1-0.6c-0.3-0.3-0.5-0.7-0.5-1.2c0-1.1,0.9-2.2,2.8-2.2c1.6,0,2.5,0.7,2.9,1l-1.2,1.1
		c-0.6-0.5-1.2-0.7-1.7-0.7c-0.8,0-0.9,0.3-0.9,0.5c0,0.4,0.4,0.5,1.1,0.6c1.3,0.2,2.9,0.6,2.9,2.2c0,1.6-1.6,2.3-3.1,2.3
		c-1.8,0-2.8-0.9-3.2-1.3L99.3,20.8L99.3,20.8z"/>
	<path class="st0" d="M105.7,14.5h1.9v2.1h1.3v1.2h-1.3v3c0,0.4,0,0.7,0.5,0.7l0.7,0V23c-0.4,0.1-0.7,0.1-1,0.1
		c-0.7,0-1.4,0-1.8-0.6c-0.3-0.4-0.3-0.9-0.3-1.5v-3.2h-1v-1.2h1V14.5L105.7,14.5z"/>
	<path class="st0" d="M110,14.1h1.9v1.5H110V14.1L110,14.1z M110,16.4h1.9V23H110V16.4L110,16.4z"/>
	<path class="st0" d="M113.9,14.5h1.9v2.1h1.3v1.2h-1.3v3c0,0.4,0,0.7,0.5,0.7l0.7,0V23c-0.4,0.1-0.7,0.1-1,0.1
		c-0.7,0-1.4,0-1.8-0.6c-0.3-0.4-0.3-0.9-0.3-1.5v-3.2h-1v-1.2h1V14.5L113.9,14.5z"/>
	<path class="st0" d="M122.1,16.4h1.9V23h-1.9v-0.6c-0.2,0.2-0.3,0.3-0.7,0.5c-0.4,0.2-0.8,0.3-1.3,0.3c-0.4,0-1.2-0.1-1.7-0.7
		c-0.3-0.5-0.4-0.9-0.4-1.9v-4.2h2v4.1c0,0.3,0,0.6,0.2,0.8c0.1,0.2,0.4,0.3,0.8,0.3c0.1,0,0.4,0,0.7-0.2c0.4-0.3,0.4-0.6,0.4-0.9
		V16.4L122.1,16.4z"/>
	<path class="st0" d="M126,14.5h1.9v2.1h1.3v1.2H128v3c0,0.4,0,0.7,0.5,0.7l0.7,0V23c-0.4,0.1-0.7,0.1-1,0.1c-0.7,0-1.4,0-1.8-0.6
		c-0.3-0.4-0.3-0.9-0.3-1.5v-3.2h-1v-1.2h1V14.5L126,14.5z"/>
	<path class="st0" d="M136.5,21.3c-0.2,0.3-0.5,0.7-0.8,1c-0.6,0.5-1.4,0.9-2.5,0.9c-2,0-3.3-1.3-3.3-3.4c0-1.6,0.8-3.6,3.4-3.6
		c0.4,0,1.5,0,2.4,0.9c0.9,0.9,0.9,2.2,0.9,3h-4.7c0,0.8,0.5,1.6,1.5,1.6c1.1,0,1.4-0.7,1.7-1.2L136.5,21.3L136.5,21.3z M134.5,18.9
		c0-0.3-0.1-0.6-0.4-0.9c-0.2-0.2-0.6-0.4-0.9-0.4c-0.5,0-0.8,0.2-1,0.4c-0.3,0.3-0.3,0.6-0.4,0.9H134.5L134.5,18.9z"/>
	<path class="st0" d="M147.7,19.7c0,1.7-1,3.5-3.5,3.5c-1.9,0-3.6-1.1-3.6-3.5c0-2,1.3-3.6,3.8-3.5
		C147.1,16.4,147.7,18.5,147.7,19.7L147.7,19.7z M142.9,18.4c-0.2,0.4-0.3,0.8-0.3,1.3c0,1,0.5,2,1.6,2c1.1,0,1.6-0.8,1.6-1.9
		c0-0.7-0.2-1.3-0.5-1.7c-0.4-0.4-0.9-0.4-1.1-0.4C143.5,17.8,143.2,18,142.9,18.4L142.9,18.4z"/>
	<path class="st0" d="M149.3,15.7c0-0.3,0-0.8,0.3-1.1c0.2-0.3,0.8-0.7,1.7-0.7c0.4,0,0.8,0.1,1.2,0.1v1.5H152c-0.7,0-0.8,0.2-0.8,1
		h1.3v1.2h-1.3V23h-1.9v-5.3h-1v-1.2h1.1V15.7L149.3,15.7z"/>
	<polygon class="st0" points="84.8,28.3 91.7,28.3 91.7,30 89.4,30 89.4,37.2 87.2,37.2 87.2,30 84.8,30 84.8,28.3 	"/>
	<path class="st0" d="M97.9,35.5c-0.2,0.3-0.5,0.7-0.8,1c-0.6,0.5-1.4,0.9-2.5,0.9c-2,0-3.3-1.3-3.3-3.4c0-1.6,0.8-3.6,3.4-3.6
		c0.4,0,1.5,0,2.4,0.9c0.9,0.9,0.9,2.2,0.9,3h-4.7c0,0.8,0.5,1.6,1.5,1.6c1.1,0,1.4-0.7,1.7-1.2L97.9,35.5L97.9,35.5z M95.9,33.1
		c0-0.3-0.1-0.6-0.4-0.9c-0.2-0.2-0.6-0.4-0.9-0.4c-0.5,0-0.8,0.2-1,0.4c-0.3,0.3-0.3,0.6-0.4,0.9H95.9L95.9,33.1z"/>
	<path class="st0" d="M104.8,35.7c-0.2,0.4-0.5,0.8-1,1.2c-0.5,0.4-1.2,0.6-1.9,0.6c-1.3,0-3.3-0.8-3.3-3.5c0-1.9,1.1-3.5,3.3-3.5
		c0.7,0,2,0.2,2.8,1.6l-1.4,0.8c-0.1-0.2-0.2-0.5-0.6-0.7c-0.2-0.1-0.4-0.2-0.7-0.2c-1.1,0-1.4,1.2-1.4,2c0,0.9,0.4,2,1.5,2
		c0.1,0,0.6,0,1-0.5c0.2-0.2,0.2-0.3,0.3-0.5L104.8,35.7L104.8,35.7z"/>
	<path class="st0" d="M107.1,28.3v3c0.3-0.3,0.8-0.9,1.9-0.9c0.5,0,1,0.1,1.4,0.5c0.6,0.5,0.7,1.1,0.7,2v4.3h-1.9v-3.5
		c0-0.5,0-0.8-0.1-1c-0.2-0.6-0.7-0.7-0.9-0.7c-0.3,0-0.6,0.2-0.8,0.4c-0.3,0.3-0.3,0.9-0.3,1.5v3.3h-1.9v-8.9H107.1L107.1,28.3z"/>
	<path class="st0" d="M114.8,31.2c0.2-0.2,0.3-0.4,0.7-0.5c0.3-0.1,0.7-0.2,1.2-0.2c0.4,0,0.8,0.1,1.2,0.3c0.7,0.4,0.9,1,0.9,2v4.5
		h-1.9v-3.7c0-0.6,0-0.8-0.1-1c-0.2-0.4-0.5-0.5-0.9-0.5c-1,0-1,0.8-1,1.6v3.6h-1.9v-6.6h2V31.2L114.8,31.2z"/>
	<path class="st0" d="M127.1,33.9c0,1.7-1,3.5-3.5,3.5c-1.9,0-3.6-1.1-3.6-3.5c0-2,1.3-3.6,3.8-3.5
		C126.5,30.6,127.1,32.7,127.1,33.9L127.1,33.9z M122.3,32.6c-0.2,0.4-0.3,0.8-0.3,1.3c0,1.1,0.5,2,1.6,2c1,0,1.6-0.8,1.6-1.9
		c0-0.7-0.2-1.3-0.5-1.7c-0.4-0.4-0.9-0.4-1.1-0.4C122.9,32,122.5,32.2,122.3,32.6L122.3,32.6z"/>
	<polygon class="st0" points="130.3,28.3 130.3,37.2 128.4,37.2 128.4,28.3 130.3,28.3 	"/>
	<path class="st0" d="M138.7,33.9c0,1.7-1,3.5-3.5,3.5c-1.9,0-3.6-1.1-3.6-3.5c0-2,1.3-3.6,3.8-3.5
		C138.1,30.6,138.7,32.7,138.7,33.9L138.7,33.9z M133.9,32.6c-0.2,0.4-0.3,0.8-0.3,1.3c0,1.1,0.5,2,1.6,2c1.1,0,1.6-0.8,1.6-1.9
		c0-0.7-0.2-1.3-0.5-1.7c-0.4-0.4-0.9-0.4-1.1-0.4C134.5,32,134.1,32.2,133.9,32.6L133.9,32.6z"/>
	<path class="st0" d="M144,36.3c-0.4,0.3-0.8,0.6-1.7,0.6c-0.5,0-1.1-0.1-1.5-0.4c-0.9-0.6-1.2-1.6-1.2-2.7c0-1.3,0.6-3.2,2.8-3.2
		c1,0,1.5,0.4,1.8,0.7v-0.6h1.8V37c0,0.7-0.1,1.6-1,2.1c-0.7,0.4-1.7,0.5-2.3,0.5c-1.3,0-2.2-0.5-2.5-0.8c-0.5-0.5-0.5-1.2-0.5-1.5
		h2c0,0.3,0.1,0.7,0.6,0.9c0.1,0.1,0.3,0.1,0.6,0.1c1.2,0,1.2-0.7,1.2-1.2V36.3L144,36.3z M141.5,33.7c0,0.6,0,1.7,1.2,1.7
		c1,0,1.2-0.8,1.2-1.7c0-0.3,0-1-0.2-1.3c-0.2-0.2-0.5-0.5-1.1-0.5C141.7,32,141.5,32.8,141.5,33.7L141.5,33.7z"/>
	<path class="st0" d="M153.1,30.6l-2.3,7.1c-0.2,0.4-0.3,0.8-0.6,1.2c-0.5,0.5-0.9,0.5-1.4,0.5h-1.4v-1.5h0.7c0.3,0,0.8,0,0.8-0.5
		c0-0.2,0-0.3-0.1-0.5l-2-6.4h2.1l1.1,4.7l1.1-4.7H153.1L153.1,30.6z"/>
	<polygon class="st1" points="38.4,37.2 38.4,11.8 46.2,11.8 46.2,37.2 38.4,37.2 	"/>
</g>
</svg>
